<svg xmlns="http://www.w3.org/2000/svg" width="200" height="200" viewBox="0 0 200 200" fill="none">
    <line x1="100" y1="20" x2="100" y2="180" stroke="black" stroke-width="2"/>
    <line x1="20" y1="100" x2="180" y2="100" stroke="black" stroke-width="2"/>
    <line x1="40" y1="40" x2="160" y2="160" stroke="black" stroke-width="2"/>
    <line x1="160" y1="40" x2="40" y2="160" stroke="black" stroke-width="2"/>
    <line x1="100" y1="20" x2="120" y2="40" stroke="black" stroke-width="2"/>
    <line x1="100" y1="20" x2="80" y2="40" stroke="black" stroke-width="2"/>
    <line x1="100" y1="180" x2="120" y2="160" stroke="black" stroke-width="2"/>
    <line x1="100" y1="180" x2="80" y2="160" stroke="black" stroke-width="2"/>
    <line x1="20" y1="100" x2="40" y2="80" stroke="black" stroke-width="2"/>
    <line x1="20" y1="100" x2="40" y2="120" stroke="black" stroke-width="2"/>
    <line x1="180" y1="100" x2="160" y2="80" stroke="black" stroke-width="2"/>
    <line x1="180" y1="100" x2="160" y2="120" stroke="black" stroke-width="2"/>
    <line x1="40" y1="40" x2="60" y2="60" stroke="black" stroke-width="2"/>
    <line x1="160" y1="160" x2="140" y2="140" stroke="black" stroke-width="2"/>
    <line x1="160" y1="40" x2="140" y2="60" stroke="black" stroke-width="2"/>
    <line x1="40" y1="160" x2="60" y2="140" stroke="black" stroke-width="2"/>
</svg>
